Mirza-Regular - Kerning, Without Production Names.ufo
<glyph name="verseComma-ar" format="1">
  <advance width="792"/>
  <unicode hex="060E"/>
  <outline>
    <contour>
      <point x="742" y="96"/>
      <point x="725" y="115"/>
      <point x="700" y="115" type="curve"/>
      <point x="687" y="115"/>
      <point x="678" y="110"/>
      <point x="672" y="105" type="curve" smooth="yes"/>
      <point x="636" y="151"/>
      <point x="598" y="200"/>
      <point x="594" y="208" type="curve" smooth="yes"/>
      <point x="609" y="208"/>
      <point x="622" y="215"/>
      <point x="629" y="227" type="curve"/>
      <point x="634" y="237"/>
      <point x="636" y="245"/>
      <point x="628" y="264" type="curve"/>
      <point x="618" y="280"/>
      <point x="607" y="300"/>
      <point x="618" y="321" type="curve" smooth="yes"/>
      <point x="604" y="321"/>
      <point x="593" y="319"/>
      <point x="583" y="310" type="curve"/>
      <point x="566" y="292"/>
      <point x="561" y="266"/>
      <point x="579" y="236" type="curve" smooth="yes"/>
      <point x="535" y="264"/>
      <point x="499" y="270"/>
      <point x="449" y="259" type="curve"/>
      <point x="361" y="242"/>
      <point x="353" y="276"/>
      <point x="352" y="280" type="curve" smooth="yes"/>
      <point x="341" y="270"/>
      <point x="335" y="259"/>
      <point x="335" y="248" type="curve"/>
      <point x="335" y="236"/>
      <point x="342" y="223"/>
      <point x="359" y="217" type="curve" smooth="yes"/>
      <point x="328" y="190"/>
      <point x="295" y="142"/>
      <point x="259" y="93" type="curve"/>
      <point x="248" y="76"/>
      <point x="203" y="21"/>
      <point x="149" y="21" type="curve"/>
      <point x="125" y="21"/>
      <point x="104" y="29"/>
      <point x="85" y="44" type="curve" smooth="yes"/>
      <point x="107" y="44"/>
      <point x="140" y="52"/>
      <point x="140" y="87" type="curve"/>
      <point x="140" y="111"/>
      <point x="120" y="131"/>
      <point x="98" y="131" type="curve"/>
      <point x="69" y="131"/>
      <point x="49" y="105"/>
      <point x="50" y="76" type="curve"/>
      <point x="50" y="33"/>
      <point x="74" y="0"/>
      <point x="142" y="0" type="curve"/>
      <point x="224" y="0"/>
      <point x="261" y="52"/>
      <point x="309" y="106" type="curve"/>
      <point x="357" y="161"/>
      <point x="403" y="215"/>
      <point x="479" y="215" type="curve"/>
      <point x="534" y="215"/>
      <point x="579" y="182"/>
      <point x="621" y="131" type="curve" smooth="yes"/>
      <point x="614" y="120"/>
      <point x="590" y="94"/>
      <point x="572" y="76" type="curve" smooth="yes"/>
      <point x="555" y="96"/>
      <point x="534" y="113"/>
      <point x="511" y="126" type="curve" smooth="yes"/>
      <point x="511" y="146"/>
      <point x="500" y="168"/>
      <point x="471" y="170" type="curve" smooth="yes"/>
      <point x="467" y="154"/>
      <point x="460" y="140"/>
      <point x="443" y="132" type="curve"/>
      <point x="408" y="115"/>
      <point x="394" y="94"/>
      <point x="394" y="65" type="curve"/>
      <point x="394" y="28"/>
      <point x="421" y="1"/>
      <point x="465" y="1" type="curve"/>
      <point x="504" y="1"/>
      <point x="535" y="16"/>
      <point x="576" y="44" type="curve" smooth="yes"/>
      <point x="598" y="22"/>
      <point x="628" y="2"/>
      <point x="659" y="2" type="curve"/>
      <point x="717" y="2"/>
      <point x="742" y="49"/>
      <point x="742" y="73" type="curve"/>
    </contour>
    <contour>
      <point x="538" y="41"/>
      <point x="507" y="22"/>
      <point x="476" y="22" type="curve"/>
      <point x="445" y="22"/>
      <point x="407" y="41"/>
      <point x="414" y="79" type="curve" smooth="yes"/>
      <point x="417" y="94"/>
      <point x="428" y="115"/>
      <point x="463" y="115" type="curve"/>
      <point x="499" y="115"/>
      <point x="527" y="96"/>
      <point x="561" y="63" type="curve"/>
    </contour>
    <contour>
      <point x="645" y="7"/>
      <point x="611" y="35"/>
      <point x="587" y="57" type="curve"/>
      <point x="600" y="72"/>
      <point x="623" y="99"/>
      <point x="634" y="117" type="curve" smooth="yes"/>
      <point x="643" y="106"/>
      <point x="651" y="98"/>
      <point x="659" y="87" type="curve" smooth="yes"/>
      <point x="645" y="57"/>
      <point x="664" y="32"/>
      <point x="697" y="28" type="curve" smooth="yes"/>
    </contour>
  </outline>
</glyph>
<glyph name="hamza-ar" format="1">
  <advance width="339"/>
  <unicode hex="0621"/>
  <outline>
    <contour>
      <point x="278" y="101"/>
      <point x="268" y="100"/>
      <point x="257" y="98" type="curve" smooth="yes"/>
      <point x="229" y="93"/>
      <point x="204" y="93"/>
      <point x="178" y="100" type="curve" smooth="yes"/>
      <point x="146" y="109"/>
      <point x="133" y="120"/>
      <point x="133" y="145" type="curve"/>
      <point x="160" y="162"/>
      <point x="182" y="173"/>
      <point x="213" y="173" type="curve" smooth="yes"/>
      <point x="232" y="173"/>
      <point x="245" y="170"/>
      <point x="253" y="166" type="curve"/>
      <point x="260" y="176" type="line"/>
      <point x="259" y="187"/>
      <point x="245" y="209"/>
      <point x="208" y="209" type="curve" smooth="yes"/>
      <point x="182" y="209"/>
      <point x="156" y="200"/>
      <point x="132" y="181" type="curve" smooth="yes"/>
      <point x="118" y="168"/>
      <point x="101" y="147"/>
      <point x="92" y="134" type="curve" smooth="yes"/>
      <point x="89" y="130"/>
      <point x="88" y="125"/>
      <point x="88" y="120" type="curve" smooth="yes"/>
      <point x="88" y="91"/>
      <point x="112" y="68"/>
      <point x="153" y="68" type="curve"/>
      <point x="117" y="48"/>
      <point x="98" y="36"/>
      <point x="74" y="22" type="curve" smooth="yes"/>
      <point x="61" y="14"/>
      <point x="60" y="9"/>
      <point x="60" y="5" type="curve" smooth="yes"/>
      <point x="60" y="2"/>
      <point x="64" y="-5"/>
      <point x="70" y="-10" type="curve"/>
      <point x="96" y="5"/>
      <point x="123" y="22"/>
      <point x="176" y="39" type="curve" smooth="yes"/>
      <point x="210" y="50"/>
      <point x="231" y="56"/>
      <point x="268" y="59" type="curve"/>
      <point x="275" y="71"/>
      <point x="283" y="89"/>
      <point x="289" y="104" type="curve"/>
    </contour>
    <contour>
      <point x="181" y="249" type="move" name="top"/>
    </contour>
    <contour>
      <point x="170" y="3" type="move" name="bottom"/>
    </contour>
  </outline>
</glyph>
<glyph name="kaf-ar" format="1">
  <advance width="762"/>
  <unicode hex="0643"/>
  <outline>
    <contour>
      <point x="671" y="512"/>
      <point x="651" y="537"/>
      <point x="639" y="566" type="curve"/>
      <point x="581" y="490" type="line"/>
      <point x="597" y="450"/>
      <point x="616" y="369"/>
      <point x="626" y="320" type="curve" smooth="yes"/>
      <point x="636" y="271"/>
      <point x="646" y="206"/>
      <point x="652" y="152" type="curve"/>
      <point x="623" y="111"/>
      <point x="616" y="102"/>
      <point x="554" y="97" type="curve" smooth="yes"/>
      <point x="514" y="94"/>
      <point x="452" y="92"/>
      <point x="402" y="92" type="curve" smooth="yes"/>
      <point x="340" y="92"/>
      <point x="276" y="95"/>
      <point x="229" y="102" type="curve" smooth="yes"/>
      <point x="175" y="110"/>
      <point x="136" y="123"/>
      <point x="113" y="159" type="curve" smooth="yes"/>
      <point x="104" y="173"/>
      <point x="96" y="194"/>
      <point x="92" y="219" type="curve"/>
      <point x="73" y="226" type="line"/>
      <point x="68" y="183"/>
      <point x="69" y="145"/>
      <point x="77" y="115" type="curve" smooth="yes"/>
      <point x="84" y="90"/>
      <point x="95" y="69"/>
      <point x="119" y="49" type="curve" smooth="yes"/>
      <point x="143" y="29"/>
      <point x="182" y="9"/>
      <point x="231" y="2" type="curve" smooth="yes"/>
      <point x="268" y="-3"/>
      <point x="330" y="-6"/>
      <point x="411" y="-6" type="curve" smooth="yes"/>
      <point x="505" y="-6"/>
      <point x="568" y="-2"/>
      <point x="597" y="4" type="curve" smooth="yes"/>
      <point x="624" y="10"/>
      <point x="651" y="25"/>
      <point x="671" y="54" type="curve" smooth="yes"/>
      <point x="689" y="80"/>
      <point x="699" y="115"/>
      <point x="702" y="157" type="curve"/>
      <point x="700" y="205"/>
      <point x="699" y="213"/>
      <point x="683" y="322" type="curve" smooth="yes"/>
      <point x="676" y="369"/>
      <point x="675" y="381"/>
      <point x="673" y="397" type="curve"/>
      <point x="670" y="439"/>
      <point x="676" y="461"/>
      <point x="699" y="481" type="curve"/>
    </contour>
    <contour>
      <point x="457" y="240"/>
      <point x="442" y="241"/>
      <point x="410" y="241" type="curve" smooth="yes"/>
      <point x="384" y="241"/>
      <point x="360" y="246"/>
      <point x="360" y="265" type="curve"/>
      <point x="377" y="279"/>
      <point x="399" y="289"/>
      <point x="424" y="297" type="curve"/>
      <point x="432" y="307"/>
      <point x="438" y="316"/>
      <point x="443" y="327" type="curve"/>
      <point x="430" y="324"/>
      <point x="406" y="316"/>
      <point x="384" y="304" type="curve" smooth="yes"/>
      <point x="352" y="287"/>
      <point x="336" y="267"/>
      <point x="336" y="243" type="curve" smooth="yes"/>
      <point x="336" y="228"/>
      <point x="349" y="216"/>
      <point x="384" y="214" type="curve" smooth="yes"/>
      <point x="412" y="212"/>
      <point x="423" y="210"/>
      <point x="423" y="203" type="curve" smooth="yes"/>
      <point x="423" y="183"/>
      <point x="346" y="163"/>
      <point x="300" y="149" type="curve"/>
      <point x="330" y="147"/>
      <point x="362" y="148"/>
      <point x="396" y="152" type="curve"/>
      <point x="440" y="178"/>
      <point x="457" y="197"/>
      <point x="457" y="219" type="curve" smooth="yes"/>
    </contour>
    <contour>
      <point x="396" y="347" type="move" name="top"/>
    </contour>
    <contour>
      <point x="397" y="-36" type="move" name="bottom"/>
    </contour>
  </outline>
</glyph>
<glyph name="kasratan-ar" format="1">
  <advance width="0"/>
  <unicode hex="064D"/>
  <outline>
    <contour>
      <point x="-88" y="-356"/>
      <point x="19" y="-309"/>
      <point x="80" y="-289" type="curve"/>
      <point x="84" y="-281"/>
      <point x="87" y="-273"/>
      <point x="88" y="-263" type="curve"/>
      <point x="25" y="-283"/>
      <point x="-25" y="-303"/>
      <point x="-81" y="-331" type="curve"/>
      <point x="-84" y="-337"/>
      <point x="-86" y="-345"/>
      <point x="-88" y="-356" type="curve"/>
    </contour>
    <contour>
      <point x="-88" y="-286"/>
      <point x="19" y="-239"/>
      <point x="80" y="-219" type="curve"/>
      <point x="84" y="-211"/>
      <point x="87" y="-203"/>
      <point x="88" y="-193" type="curve"/>
      <point x="25" y="-213"/>
      <point x="-25" y="-233"/>
      <point x="-81" y="-261" type="curve"/>
      <point x="-84" y="-267"/>
      <point x="-86" y="-275"/>
      <point x="-88" y="-286" type="curve"/>
    </contour>
    <contour>
      <point x="0" y="-163" type="move" name="_bottom"/>
    </contour>
    <contour>
      <point x="0" y="-356" type="move" name="bottom"/>
    </contour>
  </outline>
</glyph>
<glyph name="yehTail-ar" format="1">
  <advance width="659"/>
  <unicode hex="06CD"/>
  <outline>
    <contour>
      <point x="72" y="101"/>
      <point x="40" y="85"/>
      <point x="1" y="75" type="curve"/>
      <point x="30" y="40" type="line"/>
      <point x="101" y="71" type="line"/>
      <point x="101" y="118" type="line"/>
    </contour>
    <component base="alefMaksura-ar"/>
  </outline>
</glyph>
<glyph name="yehbelow-ar" format="1">
  <advance width="0"/>
  <unicode hex="06E6"/>
  <outline>
    <contour>
      <point x="-7" y="-252"/>
      <point x="-5" y="-226"/>
      <point x="-13" y="-213" type="curve" smooth="yes"/>
      <point x="-18" y="-206"/>
      <point x="-23" y="-206"/>
      <point x="-25" y="-206" type="curve" smooth="yes"/>
      <point x="-33" y="-206"/>
      <point x="-39" y="-212"/>
      <point x="-45" y="-222" type="curve" smooth="yes"/>
      <point x="-56" y="-238"/>
      <point x="-61" y="-244"/>
      <point x="-93" y="-258" type="curve" smooth="yes"/>
      <point x="-105" y="-263"/>
      <point x="-120" y="-271"/>
      <point x="-130" y="-280" type="curve" smooth="yes"/>
      <point x="-145" y="-291"/>
      <point x="-150" y="-303"/>
      <point x="-150" y="-316" type="curve" smooth="yes"/>
      <point x="-150" y="-328"/>
      <point x="-146" y="-337"/>
      <point x="-136" y="-344" type="curve" smooth="yes"/>
      <point x="-124" y="-352"/>
      <point x="-105" y="-355"/>
      <point x="-78" y="-355" type="curve" smooth="yes"/>
      <point x="128" y="-355" type="line"/>
      <point x="140" y="-341"/>
      <point x="147" y="-332"/>
      <point x="152" y="-320" type="curve"/>
      <point x="-76" y="-320" type="line" smooth="yes"/>
      <point x="-114" y="-320"/>
      <point x="-127" y="-314"/>
      <point x="-127" y="-302" type="curve" smooth="yes"/>
      <point x="-127" y="-296"/>
      <point x="-124" y="-290"/>
      <point x="-115" y="-287" type="curve"/>
      <point x="-79" y="-274"/>
      <point x="-73" y="-266"/>
      <point x="-59" y="-251" type="curve" smooth="yes"/>
      <point x="-55" y="-248"/>
      <point x="-44" y="-231"/>
      <point x="-31" y="-231" type="curve" smooth="yes"/>
      <point x="-13" y="-231"/>
      <point x="-16" y="-251"/>
      <point x="-17" y="-266" type="curve"/>
      <point x="-10" y="-266" type="line"/>
    </contour>
    <contour>
      <point x="1" y="-186" type="move" name="_bottom"/>
    </contour>
    <contour>
      <point x="1" y="-355" type="move" name="bottom"/>
    </contour>
  </outline>
</glyph>
<glyph name="three-persian" format="1">
  <advance width="456"/>
  <unicode hex="06F3"/>
  <outline>
    <contour>
      <point x="401" y="508" type="line"/>
      <point x="402" y="492"/>
      <point x="402" y="432"/>
      <point x="345" y="432" type="curve" smooth="yes"/>
      <point x="276" y="432"/>
      <point x="282" y="501"/>
      <point x="281" y="520" type="curve"/>
      <point x="259" y="508" type="line"/>
      <point x="259" y="479"/>
      <point x="261" y="438"/>
      <point x="207" y="438" type="curve" smooth="yes"/>
      <point x="133" y="438"/>
      <point x="102" y="500"/>
      <point x="87" y="523" type="curve"/>
      <point x="69" y="500"/>
      <point x="53" y="475"/>
      <point x="40" y="449" type="curve"/>
      <point x="72" y="397"/>
      <point x="96" y="331"/>
      <point x="111" y="257" type="curve" smooth="yes"/>
      <point x="128" y="175"/>
      <point x="134" y="94"/>
      <point x="128" y="0" type="curve"/>
      <point x="154" y="0" type="line"/>
      <point x="170" y="72"/>
      <point x="181" y="140"/>
      <point x="181" y="208" type="curve" smooth="yes"/>
      <point x="181" y="249"/>
      <point x="176" y="298"/>
      <point x="165" y="346" type="curve"/>
      <point x="223" y="341"/>
      <point x="242" y="351"/>
      <point x="263" y="386" type="curve"/>
      <point x="280" y="371"/>
      <point x="297" y="362"/>
      <point x="329" y="362" type="curve" smooth="yes"/>
      <point x="367" y="362"/>
      <point x="390" y="377"/>
      <point x="405" y="397" type="curve" smooth="yes"/>
      <point x="433" y="437"/>
      <point x="427" y="500"/>
      <point x="423" y="520" type="curve"/>
    </contour>
  </outline>
</glyph>
<glyph name="blackSquare" format="1">
  <advance width="383"/>
  <unicode hex="25A0"/>
  <outline>
    <contour>
      <point x="343" y="370" type="line"/>
      <point x="40" y="370" type="line"/>
      <point x="40" y="67" type="line"/>
      <point x="343" y="67" type="line"/>
    </contour>
  </outline>
</glyph>
<glyph name="whiteDiamond" format="1">
  <advance width="509"/>
  <unicode hex="25C7"/>
  <outline>
    <contour>
      <point x="469" y="61" type="line"/>
      <point x="254" y="275" type="line"/>
      <point x="40" y="61" type="line"/>
      <point x="255" y="-154" type="line"/>
    </contour>
    <contour>
      <point x="255" y="233" type="line"/>
      <point x="428" y="61" type="line"/>
      <point x="255" y="-112" type="line"/>
      <point x="83" y="61" type="line"/>
    </contour>
  </outline>
</glyph>
<glyph name="fisheye" format="1">
  <advance width="382"/>
  <unicode hex="25C9"/>
  <outline>
    <contour>
      <point x="342" y="235"/>
      <point x="275" y="303"/>
      <point x="191" y="303" type="curve" smooth="yes"/>
      <point x="107" y="303"/>
      <point x="40" y="235"/>
      <point x="40" y="151" type="curve" smooth="yes"/>
      <point x="40" y="67"/>
      <point x="107" y="0"/>
      <point x="191" y="0" type="curve" smooth="yes"/>
      <point x="275" y="0"/>
      <point x="342" y="67"/>
      <point x="342" y="151" type="curve" smooth="yes"/>
    </contour>
    <contour>
      <point x="70" y="218"/>
      <point x="124" y="273"/>
      <point x="191" y="273" type="curve" smooth="yes"/>
      <point x="259" y="273"/>
      <point x="312" y="218"/>
      <point x="312" y="151" type="curve" smooth="yes"/>
      <point x="312" y="85"/>
      <point x="259" y="30"/>
      <point x="191" y="30" type="curve" smooth="yes"/>
      <point x="124" y="30"/>
      <point x="70" y="85"/>
      <point x="70" y="151" type="curve" smooth="yes"/>
    </contour>
    <contour>
      <point x="267" y="193"/>
      <point x="234" y="227"/>
      <point x="191" y="227" type="curve" smooth="yes"/>
      <point x="150" y="227"/>
      <point x="115" y="193"/>
      <point x="115" y="151" type="curve" smooth="yes"/>
      <point x="115" y="110"/>
      <point x="150" y="76"/>
      <point x="191" y="76" type="curve" smooth="yes"/>
      <point x="234" y="76"/>
      <point x="267" y="110"/>
      <point x="267" y="151" type="curve" smooth="yes"/>
    </contour>
  </outline>
</glyph>
<glyph name="hehgoal-ar.init" format="1">
  <advance width="223"/>
  <unicode hex="FBA8"/>
  <outline>
    <contour>
      <point x="163" y="215"/>
      <point x="144" y="263"/>
      <point x="111" y="299" type="curve"/>
      <point x="94" y="280"/>
      <point x="82" y="260"/>
      <point x="68" y="230" type="curve"/>
      <point x="92" y="201"/>
      <point x="109" y="183"/>
      <point x="129" y="158" type="curve"/>
      <point x="129" y="158"/>
      <point x="111" y="98"/>
      <point x="34" y="98" type="curve" smooth="yes"/>
      <point x="-21" y="98" type="line" smooth="yes"/>
      <point x="-50" y="98"/>
      <point x="-70" y="77"/>
      <point x="-70" y="50" type="curve" smooth="yes"/>
      <point x="-70" y="22"/>
      <point x="-49" y="0"/>
      <point x="-21" y="0" type="curve" smooth="yes"/>
      <point x="26" y="0" type="line" smooth="yes"/>
      <point x="74" y="0"/>
      <point x="108" y="19"/>
      <point x="132" y="56" type="curve" smooth="yes"/>
      <point x="153" y="89"/>
      <point x="163" y="122"/>
      <point x="163" y="165" type="curve" smooth="yes"/>
    </contour>
    <contour>
      <point x="87" y="-22" type="line"/>
      <point x="37" y="-42"/>
      <point x="-13" y="-74"/>
      <point x="-26" y="-129" type="curve" smooth="yes"/>
      <point x="-34" y="-165"/>
      <point x="-13" y="-188"/>
      <point x="8" y="-188" type="curve" smooth="yes"/>
      <point x="29" y="-188"/>
      <point x="38" y="-176"/>
      <point x="41" y="-162" type="curve"/>
      <point x="16" y="-155"/>
      <point x="2" y="-143"/>
      <point x="10" y="-110" type="curve" smooth="yes"/>
      <point x="16" y="-85"/>
      <point x="37" y="-66"/>
      <point x="87" y="-40" type="curve"/>
    </contour>
    <contour>
      <point x="-1" y="264" type="move" name="top"/>
    </contour>
    <contour>
      <point x="6" y="-216" type="move" name="bottom"/>
    </contour>
  </outline>
</glyph>
<glyph name="dotabove-ar" format="1">
  <advance width="0"/>
  <unicode hex="FBB2"/>
  <outline>
    <contour>
      <point x="-14" y="776"/>
      <point x="-35" y="754"/>
      <point x="-51" y="739" type="curve"/>
      <point x="-31" y="723"/>
      <point x="-14" y="706"/>
      <point x="4" y="685" type="curve"/>
      <point x="27" y="706"/>
      <point x="42" y="721"/>
      <point x="56" y="737" type="curve"/>
      <point x="44" y="755"/>
      <point x="21" y="777"/>
      <point x="0" y="792" type="curve"/>
    </contour>
    <contour>
      <point x="3" y="792" type="move" name="top"/>
    </contour>
    <contour>
      <point x="3" y="665" type="move" name="_top"/>
    </contour>
  </outline>
</glyph>
<glyph name="twodotshorizontalbelow-ar" format="1">
  <advance width="0"/>
  <unicode hex="FBB5"/>
  <outline>
    <contour>
      <point x="29" y="-208"/>
      <point x="13" y="-224"/>
      <point x="-1" y="-238" type="curve"/>
      <point x="-14" y="-223"/>
      <point x="-31" y="-205"/>
      <point x="-47" y="-195" type="curve"/>
      <point x="-61" y="-210"/>
      <point x="-83" y="-232"/>
      <point x="-99" y="-248" type="curve"/>
      <point x="-79" y="-264"/>
      <point x="-62" y="-280"/>
      <point x="-43" y="-302" type="curve"/>
      <point x="-24" y="-285"/>
      <point x="-10" y="-271"/>
      <point x="1" y="-258" type="curve"/>
      <point x="16" y="-271"/>
      <point x="30" y="-285"/>
      <point x="44" y="-302" type="curve"/>
      <point x="68" y="-280"/>
      <point x="82" y="-266"/>
      <point x="96" y="-250" type="curve"/>
      <point x="84" y="-232"/>
      <point x="61" y="-209"/>
      <point x="40" y="-195" type="curve"/>
    </contour>
    <contour>
      <point x="-2" y="-175" type="move" name="_bottom"/>
    </contour>
    <contour>
      <point x="-2" y="-302" type="move" name="bottom"/>
    </contour>
  </outline>
</glyph>
<glyph name="threedotsdownabove-ar" format="1">
  <advance width="0"/>
  <unicode hex="FBB8"/>
  <outline>
    <contour>
      <point x="84" y="864"/>
      <point x="61" y="887"/>
      <point x="40" y="901" type="curve"/>
      <point x="29" y="890"/>
      <point x="13" y="872"/>
      <point x="-1" y="859" type="curve"/>
      <point x="-14" y="875"/>
      <point x="-31" y="891"/>
      <point x="-47" y="901" type="curve"/>
      <point x="-61" y="886"/>
      <point x="-83" y="864"/>
      <point x="-99" y="849" type="curve"/>
      <point x="-79" y="833"/>
      <point x="-62" y="816"/>
      <point x="-43" y="794" type="curve"/>
      <point x="-24" y="813"/>
      <point x="-10" y="825"/>
      <point x="1" y="838" type="curve"/>
      <point x="16" y="825"/>
      <point x="30" y="811"/>
      <point x="44" y="794" type="curve"/>
      <point x="68" y="816"/>
      <point x="82" y="831"/>
      <point x="96" y="846" type="curve"/>
    </contour>
    <contour>
      <point x="45" y="757"/>
      <point x="22" y="780"/>
      <point x="1" y="794" type="curve"/>
      <point x="-12" y="779"/>
      <point x="-34" y="757"/>
      <point x="-50" y="741" type="curve"/>
      <point x="-31" y="725"/>
      <point x="-14" y="709"/>
      <point x="5" y="687" type="curve"/>
      <point x="29" y="709"/>
      <point x="43" y="723"/>
      <point x="57" y="739" type="curve"/>
    </contour>
    <contour>
      <point x="-2" y="901" type="move" name="top"/>
    </contour>
    <contour>
      <point x="-2" y="660" type="move" name="_top"/>
    </contour>
  </outline>
</glyph>
<glyph name="seen_meem-ar" format="1">
  <advance width="825"/>
  <unicode hex="FC1F"/>
  <outline>
    <contour>
      <point x="713" y="248"/>
      <point x="698" y="228"/>
      <point x="687" y="208" type="curve"/>
      <point x="731" y="147" type="line"/>
      <point x="714" y="103"/>
      <point x="699" y="94"/>
      <point x="665" y="94" type="curve" smooth="yes"/>
      <point x="642" y="94"/>
      <point x="620" y="98"/>
      <point x="604" y="116" type="curve" smooth="yes"/>
      <point x="591" y="130"/>
      <point x="588" y="149"/>
      <point x="588" y="166" type="curve" smooth="yes"/>
      <point x="588" y="176"/>
      <point x="589" y="183"/>
      <point x="590" y="190" type="curve"/>
      <point x="568" y="178" type="line"/>
      <point x="567" y="169"/>
      <point x="566" y="160"/>
      <point x="563" y="149" type="curve" smooth="yes"/>
      <point x="555" y="122"/>
      <point x="540" y="94"/>
      <point x="483" y="94" type="curve" smooth="yes"/>
      <point x="423" y="94"/>
      <point x="397" y="126"/>
      <point x="375" y="148" type="curve" smooth="yes"/>
      <point x="356" y="168"/>
      <point x="338" y="187"/>
      <point x="308" y="187" type="curve" smooth="yes"/>
      <point x="280" y="187"/>
      <point x="237" y="167"/>
      <point x="203" y="118" type="curve" smooth="yes"/>
      <point x="178" y="82"/>
      <point x="164" y="53"/>
      <point x="156" y="7" type="curve"/>
      <point x="122" y="-10"/>
      <point x="106" y="-16"/>
      <point x="84" y="-48" type="curve"/>
      <point x="64" y="-75"/>
      <point x="51" y="-114"/>
      <point x="59" y="-169" type="curve"/>
      <point x="93" y="-375"/>
      <point x="98" y="-447"/>
      <point x="101" y="-474" type="curve"/>
      <point x="134" y="-465" type="line"/>
      <point x="133" y="-379"/>
      <point x="124" y="-302"/>
      <point x="112" y="-191" type="curve" smooth="yes"/>
      <point x="107" y="-142"/>
      <point x="105" y="-136"/>
      <point x="99" y="-99" type="curve"/>
      <point x="126" y="-72"/>
      <point x="142" y="-60"/>
      <point x="199" y="-60" type="curve" smooth="yes"/>
      <point x="246" y="-60"/>
      <point x="287" y="-68"/>
      <point x="317" y="-75" type="curve"/>
      <point x="336" y="-48"/>
      <point x="348" y="-22"/>
      <point x="357" y="4" type="curve"/>
      <point x="341" y="20"/>
      <point x="281" y="60"/>
      <point x="211" y="70" type="curve"/>
      <point x="232" y="99"/>
      <point x="257" y="118"/>
      <point x="292" y="118" type="curve" smooth="yes"/>
      <point x="330" y="118"/>
      <point x="347" y="98"/>
      <point x="369" y="68" type="curve" smooth="yes"/>
      <point x="390" y="39"/>
      <point x="417" y="0"/>
      <point x="479" y="0" type="curve" smooth="yes"/>
      <point x="540" y="0"/>
      <point x="565" y="39"/>
      <point x="574" y="75" type="curve"/>
      <point x="575" y="48"/>
      <point x="600" y="8"/>
      <point x="658" y="8" type="curve" smooth="yes"/>
      <point x="694" y="8"/>
      <point x="719" y="24"/>
      <point x="736" y="47" type="curve" smooth="yes"/>
      <point x="762" y="83"/>
      <point x="765" y="131"/>
      <point x="765" y="148" type="curve" smooth="yes"/>
      <point x="765" y="200"/>
      <point x="739" y="250"/>
      <point x="727" y="262" type="curve"/>
    </contour>
    <contour>
      <point x="413" y="0" type="move" name="caret_1"/>
    </contour>
    <contour>
      <point x="568" y="-25" type="move" name="bottom_1"/>
    </contour>
    <contour>
      <point x="571" y="232" type="move" name="top_1"/>
    </contour>
    <contour>
      <point x="170" y="188" type="move" name="top_2"/>
    </contour>
    <contour>
      <point x="118" y="-499" type="move" name="bottom_2"/>
    </contour>
  </outline>
</glyph>
<glyph name="sad_meem-ar" format="1">
  <advance width="841"/>
  <unicode hex="FC21"/>
  <outline>
    <contour>
      <point x="781" y="253"/>
      <point x="775" y="282"/>
      <point x="745" y="305" type="curve" smooth="yes"/>
      <point x="726" y="320"/>
      <point x="697" y="332"/>
      <point x="672" y="332" type="curve" smooth="yes"/>
      <point x="613" y="332"/>
      <point x="541" y="267"/>
      <point x="505" y="229" type="curve" smooth="yes"/>
      <point x="456" y="177"/>
      <point x="423" y="122"/>
      <point x="414" y="110" type="curve"/>
      <point x="386" y="113"/>
      <point x="369" y="130"/>
      <point x="352" y="157" type="curve" smooth="yes"/>
      <point x="342" y="172"/>
      <point x="335" y="191"/>
      <point x="300" y="191" type="curve" smooth="yes"/>
      <point x="278" y="191"/>
      <point x="261" y="183"/>
      <point x="242" y="170" type="curve" smooth="yes"/>
      <point x="226" y="159"/>
      <point x="212" y="144"/>
      <point x="196" y="122" type="curve" smooth="yes"/>
      <point x="186" y="107"/>
      <point x="176" y="88"/>
      <point x="168" y="68" type="curve" smooth="yes"/>
      <point x="160" y="46"/>
      <point x="156" y="25"/>
      <point x="158" y="10" type="curve"/>
      <point x="118" y="-8"/>
      <point x="99" y="-26"/>
      <point x="84" y="-48" type="curve"/>
      <point x="64" y="-75"/>
      <point x="51" y="-114"/>
      <point x="59" y="-169" type="curve"/>
      <point x="93" y="-375"/>
      <point x="98" y="-448"/>
      <point x="101" y="-474" type="curve"/>
      <point x="134" y="-465" type="line"/>
      <point x="133" y="-379"/>
      <point x="124" y="-302"/>
      <point x="112" y="-191" type="curve" smooth="yes"/>
      <point x="107" y="-142"/>
      <point x="105" y="-136"/>
      <point x="99" y="-99" type="curve"/>
      <point x="126" y="-73"/>
      <point x="142" y="-60"/>
      <point x="199" y="-60" type="curve" smooth="yes"/>
      <point x="246" y="-60"/>
      <point x="287" y="-68"/>
      <point x="317" y="-75" type="curve"/>
      <point x="336" y="-48"/>
      <point x="348" y="-22"/>
      <point x="357" y="4" type="curve"/>
      <point x="343" y="16"/>
      <point x="277" y="58"/>
      <point x="208" y="68" type="curve"/>
      <point x="221" y="92"/>
      <point x="249" y="118"/>
      <point x="294" y="118" type="curve" smooth="yes"/>
      <point x="338" y="118"/>
      <point x="352" y="90"/>
      <point x="372" y="63" type="curve" smooth="yes"/>
      <point x="391" y="38"/>
      <point x="415" y="15"/>
      <point x="472" y="15" type="curve" smooth="yes"/>
      <point x="557" y="15"/>
      <point x="635" y="42"/>
      <point x="688" y="83" type="curve" smooth="yes"/>
      <point x="714" y="103"/>
      <point x="740" y="131"/>
      <point x="755" y="156" type="curve" smooth="yes"/>
      <point x="772" y="184"/>
      <point x="781" y="216"/>
      <point x="781" y="236" type="curve" smooth="yes"/>
    </contour>
    <contour>
      <point x="712" y="156"/>
      <point x="693" y="140"/>
      <point x="661" y="127" type="curve" smooth="yes"/>
      <point x="637" y="117"/>
      <point x="605" y="109"/>
      <point x="565" y="109" type="curve" smooth="yes"/>
      <point x="450" y="109" type="line"/>
      <point x="469" y="136"/>
      <point x="498" y="172"/>
      <point x="519" y="194" type="curve" smooth="yes"/>
      <point x="559" y="236"/>
      <point x="597" y="257"/>
      <point x="633" y="257" type="curve" smooth="yes"/>
      <point x="671" y="257"/>
      <point x="697" y="233"/>
      <point x="709" y="219" type="curve" smooth="yes"/>
      <point x="719" y="207"/>
      <point x="723" y="197"/>
      <point x="729" y="176" type="curve"/>
    </contour>
    <contour>
      <point x="421" y="0" type="move" name="caret_1"/>
    </contour>
    <contour>
      <point x="553" y="-35" type="move" name="bottom_1"/>
    </contour>
    <contour>
      <point x="652" y="362" type="move" name="top_1"/>
    </contour>
    <contour>
      <point x="161" y="188" type="move" name="top_2"/>
    </contour>
    <contour>
      <point x="118" y="-498" type="move" name="bottom_2"/>
    </contour>
  </outline>
</glyph>
<glyph name="parenleft-ar" format="1">
  <advance width="470"/>
  <unicode hex="FD3E"/>
  <outline>
    <contour>
      <point x="67" y="171"/>
      <point x="99" y="163"/>
      <point x="143" y="156" type="curve"/>
      <point x="146" y="132"/>
      <point x="154" y="110"/>
      <point x="166" y="95" type="curve"/>
      <point x="177" y="83"/>
      <point x="190" y="75"/>
      <point x="207" y="75" type="curve"/>
      <point x="206" y="83"/>
      <point x="199" y="144"/>
      <point x="271" y="185" type="curve"/>
      <point x="260" y="176"/>
      <point x="247" y="160"/>
      <point x="244" y="125" type="curve" smooth="yes"/>
      <point x="237" y="47"/>
      <point x="301" y="24"/>
      <point x="301" y="-17" type="curve" smooth="yes"/>
      <point x="301" y="-39"/>
      <point x="281" y="-48"/>
      <point x="264" y="-42" type="curve"/>
      <point x="273" y="-58"/>
      <point x="283" y="-63"/>
      <point x="295" y="-63" type="curve" smooth="yes"/>
      <point x="309" y="-63"/>
      <point x="316" y="-57"/>
      <point x="329" y="-46" type="curve"/>
      <point x="368" y="-88"/>
      <point x="404" y="-140"/>
      <point x="413" y="-201" type="curve"/>
      <point x="400" y="-194"/>
      <point x="385" y="-187"/>
      <point x="371" y="-187" type="curve" smooth="yes"/>
      <point x="348" y="-187"/>
      <point x="329" y="-206"/>
      <point x="329" y="-225" type="curve" smooth="yes"/>
      <point x="329" y="-239"/>
      <point x="340" y="-268"/>
      <point x="372" y="-268" type="curve" smooth="yes"/>
      <point x="411" y="-268"/>
      <point x="441" y="-227"/>
      <point x="440" y="-182" type="curve"/>
      <point x="444" y="-121"/>
      <point x="396" y="-49"/>
      <point x="322" y="33" type="curve"/>
      <point x="324" y="39"/>
      <point x="329" y="46"/>
      <point x="326" y="55" type="curve"/>
      <point x="321" y="66"/>
      <point x="297" y="61"/>
      <point x="280" y="78" type="curve"/>
      <point x="260" y="104"/>
      <point x="266" y="123"/>
      <point x="280" y="161" type="curve"/>
      <point x="282" y="133"/>
      <point x="298" y="116"/>
      <point x="323" y="116" type="curve" smooth="yes"/>
      <point x="348" y="116"/>
      <point x="364" y="134"/>
      <point x="364" y="156" type="curve" smooth="yes"/>
      <point x="364" y="174"/>
      <point x="354" y="186"/>
      <point x="345" y="192" type="curve"/>
      <point x="353" y="197"/>
      <point x="364" y="209"/>
      <point x="364" y="227" type="curve" smooth="yes"/>
      <point x="364" y="248"/>
      <point x="349" y="268"/>
      <point x="322" y="268" type="curve" smooth="yes"/>
      <point x="297" y="268"/>
      <point x="280" y="250"/>
      <point x="280" y="222" type="curve"/>
      <point x="267" y="254"/>
      <point x="260" y="280"/>
      <point x="280" y="305" type="curve"/>
      <point x="297" y="323"/>
      <point x="321" y="317"/>
      <point x="326" y="329" type="curve"/>
      <point x="329" y="335"/>
      <point x="325" y="342"/>
      <point x="322" y="350" type="curve"/>
      <point x="389" y="418"/>
      <point x="444" y="507"/>
      <point x="440" y="565" type="curve"/>
      <point x="441" y="599"/>
      <point x="419" y="652"/>
      <point x="373" y="652" type="curve" smooth="yes"/>
      <point x="339" y="652"/>
      <point x="329" y="622"/>
      <point x="329" y="609" type="curve" smooth="yes"/>
      <point x="329" y="591"/>
      <point x="346" y="571"/>
      <point x="373" y="571" type="curve" smooth="yes"/>
      <point x="385" y="571"/>
      <point x="394" y="575"/>
      <point x="413" y="584" type="curve"/>
      <point x="405" y="523"/>
      <point x="376" y="479"/>
      <point x="329" y="429" type="curve"/>
      <point x="318" y="438"/>
      <point x="308" y="446"/>
      <point x="294" y="446" type="curve" smooth="yes"/>
      <point x="284" y="446"/>
      <point x="273" y="441"/>
      <point x="264" y="425" type="curve"/>
      <point x="281" y="431"/>
      <point x="301" y="424"/>
      <point x="301" y="400" type="curve" smooth="yes"/>
      <point x="301" y="359"/>
      <point x="237" y="336"/>
      <point x="244" y="259" type="curve" smooth="yes"/>
      <point x="247" y="228"/>
      <point x="258" y="210"/>
      <point x="270" y="200" type="curve"/>
      <point x="200" y="240"/>
      <point x="206" y="302"/>
      <point x="207" y="309" type="curve"/>
      <point x="188" y="309"/>
      <point x="173" y="299"/>
      <point x="162" y="283" type="curve" smooth="yes"/>
      <point x="152" y="269"/>
      <point x="145" y="250"/>
      <point x="143" y="227" type="curve"/>
      <point x="103" y="221"/>
      <point x="68" y="214"/>
      <point x="50" y="192" type="curve"/>
    </contour>
  </outline>
</glyph>
<glyph name="rial" format="1">
  <advance width="1160"/>
  <unicode hex="FDFC"/>
  <outline>
    <contour>
      <point x="64" y="-65"/>
      <point x="88" y="-127"/>
      <point x="144" y="-159" type="curve" smooth="yes"/>
      <point x="183" y="-182"/>
      <point x="236" y="-203"/>
      <point x="320" y="-196" type="curve"/>
      <point x="322" y="-211"/>
      <point x="325" y="-225"/>
      <point x="327" y="-240" type="curve"/>
      <point x="359" y="-217" type="line"/>
      <point x="358" y="-208"/>
      <point x="356" y="-199"/>
      <point x="355" y="-190" type="curve"/>
      <point x="393" y="-181"/>
      <point x="424" y="-163"/>
      <point x="447" y="-136" type="curve" smooth="yes"/>
      <point x="469" y="-111"/>
      <point x="484" y="-79"/>
      <point x="493" y="-42" type="curve" smooth="yes"/>
      <point x="502" y="-6"/>
      <point x="504" y="35"/>
      <point x="499" y="80" type="curve" smooth="yes"/>
      <point x="482" y="267"/>
      <point x="471" y="348"/>
      <point x="466" y="403" type="curve" smooth="yes"/>
      <point x="462" y="448"/>
      <point x="465" y="466"/>
      <point x="489" y="486" type="curve"/>
      <point x="460" y="516"/>
      <point x="440" y="550"/>
      <point x="430" y="568" type="curve"/>
      <point x="371" y="492" type="line"/>
      <point x="385" y="456"/>
      <point x="412" y="360"/>
      <point x="442" y="171" type="curve" smooth="yes"/>
      <point x="453" y="101"/>
      <point x="458" y="51"/>
      <point x="458" y="27" type="curve" smooth="yes"/>
      <point x="458" y="-7"/>
      <point x="448" y="-33"/>
      <point x="422" y="-52" type="curve" smooth="yes"/>
      <point x="403" y="-66"/>
      <point x="376" y="-76"/>
      <point x="344" y="-81" type="curve"/>
      <point x="339" y="-35"/>
      <point x="329" y="9"/>
      <point x="311" y="46" type="curve" smooth="yes"/>
      <point x="285" y="101"/>
      <point x="242" y="139"/>
      <point x="176" y="139" type="curve" smooth="yes"/>
      <point x="107" y="139"/>
      <point x="66" y="69"/>
      <point x="65" y="-6" type="curve" smooth="yes"/>
    </contour>
    <contour>
      <point x="554" y="518"/>
      <point x="581" y="554"/>
      <point x="591" y="568" type="curve"/>
      <point x="602" y="568" type="line"/>
      <point x="612" y="178" type="line" smooth="yes"/>
      <point x="613" y="154"/>
      <point x="619" y="135"/>
      <point x="630" y="122" type="curve" smooth="yes"/>
      <point x="644" y="106"/>
      <point x="665" y="98"/>
      <point x="693" y="98" type="curve" smooth="yes"/>
      <point x="759" y="98" type="line" smooth="yes"/>
      <point x="812" y="98"/>
      <point x="827" y="115"/>
      <point x="854" y="158" type="curve"/>
      <point x="834" y="189"/>
      <point x="815" y="215"/>
      <point x="793" y="240" type="curve"/>
      <point x="807" y="270"/>
      <point x="819" y="290"/>
      <point x="836" y="309" type="curve"/>
      <point x="869" y="273"/>
      <point x="888" y="225"/>
      <point x="888" y="175" type="curve" smooth="yes"/>
      <point x="888" y="132"/>
      <point x="878" y="89"/>
      <point x="857" y="56" type="curve" smooth="yes"/>
      <point x="833" y="19"/>
      <point x="799" y="0"/>
      <point x="751" y="0" type="curve" smooth="yes"/>
      <point x="675" y="0" type="line" smooth="yes"/>
      <point x="637" y="0"/>
      <point x="608" y="13"/>
      <point x="589" y="38" type="curve" smooth="yes"/>
      <point x="569" y="65"/>
      <point x="558" y="102"/>
      <point x="557" y="146" type="curve" smooth="yes"/>
      <point x="555" y="271"/>
      <point x="551" y="391"/>
      <point x="536" y="488" type="curve"/>
    </contour>
    <contour>
      <point x="636" y="-72"/>
      <point x="658" y="-50"/>
      <point x="672" y="-35" type="curve"/>
      <point x="688" y="-45"/>
      <point x="705" y="-63"/>
      <point x="718" y="-78" type="curve"/>
      <point x="732" y="-64"/>
      <point x="748" y="-48"/>
      <point x="759" y="-35" type="curve"/>
      <point x="780" y="-49"/>
      <point x="803" y="-72"/>
      <point x="815" y="-90" type="curve"/>
      <point x="801" y="-106"/>
      <point x="787" y="-120"/>
      <point x="763" y="-142" type="curve"/>
      <point x="749" y="-125"/>
      <point x="735" y="-111"/>
      <point x="720" y="-98" type="curve"/>
      <point x="709" y="-111"/>
      <point x="695" y="-125"/>
      <point x="676" y="-142" type="curve"/>
      <point x="657" y="-120"/>
      <point x="640" y="-104"/>
      <point x="620" y="-88" type="curve"/>
    </contour>
    <contour>
      <point x="860" y="-124"/>
      <point x="893" y="-106"/>
      <point x="925" y="-88" type="curve" smooth="yes"/>
      <point x="953" y="-72"/>
      <point x="994" y="-46"/>
      <point x="1017" y="-23" type="curve" smooth="yes"/>
      <point x="1044" y="4"/>
      <point x="1057" y="35"/>
      <point x="1057" y="70" type="curve" smooth="yes"/>
      <point x="1057" y="100"/>
      <point x="1048" y="121"/>
      <point x="1034" y="143" type="curve" smooth="yes"/>
      <point x="1022" y="162"/>
      <point x="1005" y="184"/>
      <point x="989" y="199" type="curve"/>
      <point x="1005" y="228"/>
      <point x="1018" y="248"/>
      <point x="1038" y="271" type="curve"/>
      <point x="1045" y="264"/>
      <point x="1056" y="250"/>
      <point x="1067" y="230" type="curve" smooth="yes"/>
      <point x="1083" y="201"/>
      <point x="1100" y="161"/>
      <point x="1100" y="96" type="curve" smooth="yes"/>
      <point x="1100" y="54"/>
      <point x="1093" y="-25"/>
      <point x="1058" y="-86" type="curve" smooth="yes"/>
      <point x="1045" y="-109"/>
      <point x="1027" y="-130"/>
      <point x="1005" y="-145" type="curve" smooth="yes"/>
      <point x="981" y="-162"/>
      <point x="961" y="-168"/>
      <point x="933" y="-168" type="curve" smooth="yes"/>
      <point x="914" y="-168"/>
      <point x="885" y="-165"/>
      <point x="862" y="-165" type="curve" smooth="yes"/>
      <point x="844" y="-165"/>
      <point x="826" y="-167"/>
      <point x="804" y="-172" type="curve"/>
      <point x="795" y="-159" type="line"/>
    </contour>
    <contour>
      <point x="299" y="-84"/>
      <point x="254" y="-88"/>
      <point x="199" y="-71" type="curve" smooth="yes"/>
      <point x="138" y="-52"/>
      <point x="116" y="-9"/>
      <point x="120" y="29" type="curve" smooth="yes"/>
      <point x="123" y="64"/>
      <point x="147" y="94"/>
      <point x="180" y="94" type="curve" smooth="yes"/>
      <point x="250" y="94"/>
      <point x="286" y="17"/>
      <point x="299" y="-84" type="curve"/>
    </contour>
  </outline>
</glyph>
<glyph name="hah-ar.fina" format="1">
  <advance width="651"/>
  <unicode hex="FEA2"/>
  <outline>
    <contour>
      <point x="574" y="98" type="line" smooth="yes"/>
      <point x="531" y="98"/>
      <point x="500" y="110"/>
      <point x="480" y="129" type="curve" smooth="yes"/>
      <point x="455" y="152"/>
      <point x="454" y="178"/>
      <point x="456" y="197" type="curve"/>
      <point x="463" y="198"/>
      <point x="485" y="198"/>
      <point x="494" y="196" type="curve"/>
      <point x="505" y="222"/>
      <point x="517" y="268"/>
      <point x="518" y="270" type="curve"/>
      <point x="510" y="270"/>
      <point x="502" y="270"/>
      <point x="494" y="270" type="curve" smooth="yes"/>
      <point x="384" y="270"/>
      <point x="291" y="298"/>
      <point x="272" y="304" type="curve" smooth="yes"/>
      <point x="247" y="312"/>
      <point x="227" y="319"/>
      <point x="201" y="319" type="curve" smooth="yes"/>
      <point x="177" y="319"/>
      <point x="160" y="313"/>
      <point x="144" y="298" type="curve" smooth="yes"/>
      <point x="129" y="284"/>
      <point x="115" y="266"/>
      <point x="93" y="217" type="curve"/>
      <point x="109" y="206" type="line"/>
      <point x="119" y="223"/>
      <point x="141" y="249"/>
      <point x="194" y="249" type="curve" smooth="yes"/>
      <point x="243" y="249"/>
      <point x="292" y="227"/>
      <point x="311" y="220" type="curve"/>
      <point x="271" y="210"/>
      <point x="235" y="195"/>
      <point x="204" y="174" type="curve" smooth="yes"/>
      <point x="166" y="149"/>
      <point x="135" y="116"/>
      <point x="110" y="72" type="curve" smooth="yes"/>
      <point x="87" y="32"/>
      <point x="73" y="-18"/>
      <point x="71" y="-69" type="curve" smooth="yes"/>
      <point x="68" y="-139"/>
      <point x="88" y="-200"/>
      <point x="128" y="-244" type="curve" smooth="yes"/>
      <point x="166" y="-285"/>
      <point x="222" y="-310"/>
      <point x="289" y="-310" type="curve" smooth="yes"/>
      <point x="335" y="-310"/>
      <point x="359" y="-298"/>
      <point x="384" y="-284" type="curve" smooth="yes"/>
      <point x="408" y="-271"/>
      <point x="434" y="-258"/>
      <point x="479" y="-256" type="curve"/>
      <point x="484" y="-241" type="line"/>
      <point x="448" y="-236"/>
      <point x="439" y="-235"/>
      <point x="402" y="-233" type="curve" smooth="yes"/>
      <point x="351" y="-230"/>
      <point x="317" y="-225"/>
      <point x="304" y="-223" type="curve" smooth="yes"/>
      <point x="250" y="-213"/>
      <point x="200" y="-189"/>
      <point x="168" y="-152" type="curve" smooth="yes"/>
      <point x="137" y="-116"/>
      <point x="126" y="-74"/>
      <point x="128" y="-34" type="curve" smooth="yes"/>
      <point x="131" y="31"/>
      <point x="165" y="79"/>
      <point x="215" y="118" type="curve" smooth="yes"/>
      <point x="271" y="163"/>
      <point x="348" y="189"/>
      <point x="423" y="189" type="curve"/>
      <point x="416" y="132"/>
      <point x="417" y="95"/>
      <point x="437" y="64" type="curve" smooth="yes"/>
      <point x="462" y="25"/>
      <point x="499" y="0"/>
      <point x="563" y="0" type="curve" smooth="yes"/>
      <point x="651" y="0" type="line"/>
      <point x="651" y="98" type="line"/>
    </contour>
    <contour>
      <point x="300" y="-14" type="move" name="center"/>
    </contour>
    <contour>
      <point x="289" y="-340" type="move" name="bottom"/>
    </contour>
    <contour>
      <point x="271" y="349" type="move" name="top"/>
    </contour>
  </outline>
</glyph>
<glyph name="meem-ar.init" format="1">
  <advance width="410"/>
  <unicode hex="FEE3"/>
  <outline>
    <contour>
      <point x="350" y="102"/>
      <point x="352" y="129"/>
      <point x="348" y="163" type="curve" smooth="yes"/>
      <point x="344" y="197"/>
      <point x="337" y="221"/>
      <point x="320" y="243" type="curve" smooth="yes"/>
      <point x="305" y="262"/>
      <point x="288" y="272"/>
      <point x="265" y="272" type="curve" smooth="yes"/>
      <point x="230" y="272"/>
      <point x="203" y="248"/>
      <point x="185" y="223" type="curve" smooth="yes"/>
      <point x="173" y="207"/>
      <point x="163" y="187"/>
      <point x="153" y="161" type="curve"/>
      <point x="139" y="170" type="line"/>
      <point x="127" y="141"/>
      <point x="118" y="124"/>
      <point x="107" y="114" type="curve" smooth="yes"/>
      <point x="94" y="100"/>
      <point x="79" y="98"/>
      <point x="52" y="98" type="curve" smooth="yes"/>
      <point x="-21" y="98" type="line" smooth="yes"/>
      <point x="-51" y="98"/>
      <point x="-70" y="76"/>
      <point x="-70" y="49" type="curve" smooth="yes"/>
      <point x="-70" y="21"/>
      <point x="-49" y="0"/>
      <point x="-21" y="0" type="curve" smooth="yes"/>
      <point x="11" y="0" type="line" smooth="yes"/>
      <point x="84" y="0"/>
      <point x="123" y="11"/>
      <point x="143" y="75" type="curve" smooth="yes"/>
      <point x="189" y="43"/>
      <point x="238" y="25"/>
      <point x="311" y="17" type="curve"/>
      <point x="343" y="76" type="line"/>
    </contour>
    <contour>
      <point x="258" y="202"/>
      <point x="288" y="183"/>
      <point x="304" y="152" type="curve" smooth="yes"/>
      <point x="318" y="125"/>
      <point x="320" y="90"/>
      <point x="320" y="90" type="curve"/>
      <point x="275" y="100"/>
      <point x="226" y="121"/>
      <point x="179" y="149" type="curve" smooth="yes"/>
      <point x="179" y="149"/>
      <point x="191" y="202"/>
      <point x="233" y="202" type="curve" smooth="yes"/>
    </contour>
    <contour>
      <point x="245" y="302" type="move" name="top"/>
    </contour>
    <contour>
      <point x="174" y="-10" type="move" name="bottom"/>
    </contour>
  </outline>
</glyph>
<glyph name="TahSmallDotbelow-ar" format="1">
  <advance width="0"/>
  <outline>
    <contour>
      <point x="-44" y="776"/>
      <point x="-65" y="754"/>
      <point x="-81" y="739" type="curve"/>
      <point x="-61" y="723"/>
      <point x="-44" y="706"/>
      <point x="-26" y="685" type="curve"/>
      <point x="-3" y="706"/>
      <point x="12" y="721"/>
      <point x="26" y="737" type="curve"/>
      <point x="14" y="755"/>
      <point x="-9" y="777"/>
      <point x="-30" y="792" type="curve"/>
    </contour>
    <contour>
      <point x="-84" y="984" type="line" smooth="yes"/>
      <point x="-80" y="976"/>
      <point x="-64" y="940"/>
      <point x="-60" y="885" type="curve" smooth="yes"/>
      <point x="-71" y="865" type="line" smooth="yes"/>
      <point x="-100" y="865" type="line" smooth="yes"/>
      <point x="-90" y="833" type="line" smooth="yes"/>
      <point x="-48" y="833" type="line"/>
      <point x="-27" y="833"/>
      <point x="-4" y="842"/>
      <point x="15" y="855" type="curve"/>
      <point x="33" y="870"/>
      <point x="44" y="888"/>
      <point x="44" y="907" type="curve"/>
      <point x="44" y="922"/>
      <point x="23" y="936"/>
      <point x="8" y="936" type="curve"/>
      <point x="-5" y="936"/>
      <point x="-27" y="928"/>
      <point x="-50" y="895" type="curve" smooth="yes"/>
      <point x="-49" y="916"/>
      <point x="-50" y="923"/>
      <point x="-57" y="953" type="curve" smooth="yes"/>
      <point x="-58" y="972"/>
      <point x="-54" y="975"/>
      <point x="-47" y="982" type="curve" smooth="yes"/>
      <point x="-56" y="991"/>
      <point x="-63" y="1000"/>
      <point x="-68" y="1008" type="curve" smooth="yes"/>
    </contour>
    <contour>
      <point x="18" y="875"/>
      <point x="-3" y="865"/>
      <point x="-27" y="865" type="curve"/>
      <point x="-53" y="865" type="line" smooth="yes"/>
      <point x="-43" y="887"/>
      <point x="-29" y="910"/>
      <point x="-6" y="911" type="curve" smooth="yes"/>
      <point x="15" y="911"/>
      <point x="23" y="898"/>
      <point x="28" y="888" type="curve" smooth="yes"/>
    </contour>
    <contour>
      <point x="-28" y="1008" type="move" name="top"/>
    </contour>
    <contour>
      <point x="-28" y="663" type="move" name="_top"/>
    </contour>
  </outline>
</glyph>
<glyph name="VaDotbelow-ar" format="1">
  <advance width="0"/>
  <outline>
    <contour>
      <point x="-47" y="776"/>
      <point x="-68" y="754"/>
      <point x="-84" y="739" type="curve"/>
      <point x="-64" y="723"/>
      <point x="-47" y="706"/>
      <point x="-29" y="685" type="curve"/>
      <point x="-6" y="706"/>
      <point x="9" y="721"/>
      <point x="23" y="737" type="curve"/>
      <point x="11" y="755"/>
      <point x="-12" y="777"/>
      <point x="-33" y="792" type="curve"/>
    </contour>
    <contour>
      <point x="37" y="964"/>
      <point x="34" y="972"/>
      <point x="28" y="981" type="curve"/>
      <point x="9" y="956"/>
      <point x="-5" y="935"/>
      <point x="-13" y="917" type="curve" smooth="yes"/>
      <point x="-20" y="905"/>
      <point x="-23" y="896"/>
      <point x="-26" y="888" type="curve" smooth="yes"/>
      <point x="-30" y="874"/>
      <point x="-30" y="865"/>
      <point x="-30" y="865" type="curve" smooth="yes"/>
      <point x="-30" y="865"/>
      <point x="-31" y="874"/>
      <point x="-35" y="888" type="curve" smooth="yes"/>
      <point x="-38" y="896"/>
      <point x="-41" y="905"/>
      <point x="-46" y="916" type="curve" smooth="yes"/>
      <point x="-55" y="935"/>
      <point x="-70" y="957"/>
      <point x="-90" y="981" type="curve"/>
      <point x="-95" y="974"/>
      <point x="-98" y="967"/>
      <point x="-100" y="956" type="curve"/>
      <point x="-78" y="931"/>
      <point x="-59" y="898"/>
      <point x="-48" y="866" type="curve" smooth="yes"/>
      <point x="-42" y="850"/>
      <point x="-39" y="834"/>
      <point x="-39" y="821" type="curve"/>
      <point x="-23" y="821" type="line"/>
      <point x="-22" y="835"/>
      <point x="-19" y="854"/>
      <point x="-13" y="869" type="curve" smooth="yes"/>
      <point x="-2" y="897"/>
      <point x="13" y="926"/>
      <point x="39" y="956" type="curve"/>
    </contour>
    <contour>
      <point x="-30" y="980" type="move" name="top"/>
    </contour>
    <contour>
      <point x="-29" y="665" type="move" name="_top"/>
    </contour>
  </outline>
</glyph>
<glyph name="behVbelow-ar.init" format="1">
  <advance width="223"/>
  <outline>
    <component base="dotlessbeh-ar.init"/>
    <component base="vbelow-ar" xOffset="13" yOffset="155"/>
    <contour>
      <point x="16" y="-239" type="move" name="bottom"/>
    </contour>
  </outline>
</glyph>
<glyph name="dotlessbeh_meem-ar.fina" format="1">
  <advance width="503"/>
  <outline>
    <contour>
      <point x="466" y="98" type="line" smooth="yes"/>
      <point x="424" y="98"/>
      <point x="400" y="123"/>
      <point x="378" y="145" type="curve" smooth="yes"/>
      <point x="359" y="165"/>
      <point x="338" y="184"/>
      <point x="308" y="184" type="curve" smooth="yes"/>
      <point x="280" y="184"/>
      <point x="237" y="167"/>
      <point x="203" y="118" type="curve" smooth="yes"/>
      <point x="178" y="82"/>
      <point x="164" y="53"/>
      <point x="156" y="7" type="curve"/>
      <point x="122" y="-10"/>
      <point x="106" y="-16"/>
      <point x="84" y="-48" type="curve"/>
      <point x="64" y="-75"/>
      <point x="51" y="-114"/>
      <point x="59" y="-169" type="curve"/>
      <point x="93" y="-375"/>
      <point x="98" y="-447"/>
      <point x="101" y="-474" type="curve"/>
      <point x="134" y="-465" type="line"/>
      <point x="133" y="-379"/>
      <point x="124" y="-302"/>
      <point x="112" y="-191" type="curve" smooth="yes"/>
      <point x="107" y="-142"/>
      <point x="105" y="-136"/>
      <point x="99" y="-99" type="curve"/>
      <point x="126" y="-72"/>
      <point x="142" y="-60"/>
      <point x="199" y="-60" type="curve" smooth="yes"/>
      <point x="246" y="-60"/>
      <point x="287" y="-71"/>
      <point x="317" y="-78" type="curve"/>
      <point x="336" y="-51"/>
      <point x="348" y="-24"/>
      <point x="357" y="2" type="curve"/>
      <point x="343" y="20"/>
      <point x="282" y="58"/>
      <point x="212" y="68" type="curve"/>
      <point x="234" y="98"/>
      <point x="253" y="116"/>
      <point x="293" y="116" type="curve" smooth="yes"/>
      <point x="337" y="116"/>
      <point x="360" y="88"/>
      <point x="379" y="60" type="curve" smooth="yes"/>
      <point x="401" y="29"/>
      <point x="421" y="0"/>
      <point x="473" y="0" type="curve" smooth="yes"/>
      <point x="503" y="0" type="line"/>
      <point x="503" y="98" type="line"/>
    </contour>
    <contour>
      <point x="250" y="0" type="move" name="caret_1"/>
    </contour>
    <contour>
      <point x="303" y="-142" type="move" name="bottom_1"/>
    </contour>
    <contour>
      <point x="287" y="214" type="move" name="top_1"/>
    </contour>
    <contour>
      <point x="72" y="108" type="move" name="top_2"/>
    </contour>
    <contour>
      <point x="115" y="-499" type="move" name="bottom_2"/>
    </contour>
  </outline>
</glyph>
<glyph name="dotlessbeh_reh-ar" format="1">
  <advance width="509"/>
  <outline>
    <contour>
      <point x="355" y="211"/>
      <point x="299" y="192"/>
      <point x="273" y="179" type="curve" smooth="yes"/>
      <point x="218" y="151"/>
      <point x="188" y="85"/>
      <point x="195" y="23" type="curve" smooth="yes"/>
      <point x="197" y="5"/>
      <point x="202" y="-12"/>
      <point x="202" y="-34" type="curve" smooth="yes"/>
      <point x="202" y="-72"/>
      <point x="188" y="-101"/>
      <point x="160" y="-128" type="curve" smooth="yes"/>
      <point x="134" y="-153"/>
      <point x="93" y="-179"/>
      <point x="55" y="-201" type="curve" smooth="yes"/>
      <point x="17" y="-223"/>
      <point x="-23" y="-244"/>
      <point x="-60" y="-264" type="curve"/>
      <point x="-51" y="-277" type="line"/>
      <point x="-30" y="-271"/>
      <point x="-12" y="-269"/>
      <point x="3" y="-269" type="curve" smooth="yes"/>
      <point x="25" y="-269"/>
      <point x="57" y="-273"/>
      <point x="79" y="-273" type="curve" smooth="yes"/>
      <point x="119" y="-273"/>
      <point x="140" y="-260"/>
      <point x="161" y="-240" type="curve" smooth="yes"/>
      <point x="181" y="-221"/>
      <point x="201" y="-194"/>
      <point x="218" y="-155" type="curve" smooth="yes"/>
      <point x="240" y="-105"/>
      <point x="249" y="-65"/>
      <point x="249" y="-23" type="curve" smooth="yes"/>
      <point x="250" y="2"/>
      <point x="247" y="28"/>
      <point x="242" y="57" type="curve"/>
      <point x="251" y="75"/>
      <point x="346" y="104"/>
      <point x="405" y="104" type="curve" smooth="yes"/>
      <point x="410" y="104"/>
      <point x="415" y="104"/>
      <point x="419" y="103" type="curve"/>
      <point x="441" y="151"/>
      <point x="449" y="209"/>
      <point x="449" y="209" type="curve"/>
      <point x="439" y="210"/>
      <point x="431" y="211"/>
      <point x="417" y="211" type="curve" smooth="yes"/>
    </contour>
    <contour>
      <point x="285" y="0" type="move" name="caret_1"/>
    </contour>
    <contour>
      <point x="360" y="-15" type="move" name="bottom_1"/>
    </contour>
    <contour>
      <point x="355" y="262" type="move" name="top_1"/>
    </contour>
    <contour>
      <point x="151" y="188" type="move" name="top_2"/>
    </contour>
    <contour>
      <point x="39" y="-300" type="move" name="bottom_2"/>
    </contour>
  </outline>
</glyph>
<glyph name="gaf-ar.medi.001" format="1">
  <advance width="707"/>
  <outline>
    <contour>
      <point x="603" y="98" type="line"/>
      <point x="602" y="133"/>
      <point x="593" y="177"/>
      <point x="567" y="213" type="curve" smooth="yes"/>
      <point x="532" y="258"/>
      <point x="476" y="281"/>
      <point x="398" y="281" type="curve" smooth="yes"/>
      <point x="360" y="281"/>
      <point x="215" y="276"/>
      <point x="183" y="276" type="curve" smooth="yes"/>
      <point x="163" y="276"/>
      <point x="142" y="278"/>
      <point x="124" y="283" type="curve"/>
      <point x="92" y="289"/>
      <point x="70" y="306"/>
      <point x="67" y="329" type="curve"/>
      <point x="104" y="367"/>
      <point x="169" y="399"/>
      <point x="225" y="416" type="curve"/>
      <point x="233" y="444"/>
      <point x="239" y="471"/>
      <point x="242" y="500" type="curve"/>
      <point x="157" y="468"/>
      <point x="106" y="425"/>
      <point x="79" y="394" type="curve" smooth="yes"/>
      <point x="47" y="357"/>
      <point x="28" y="316"/>
      <point x="28" y="284" type="curve" smooth="yes"/>
      <point x="28" y="265"/>
      <point x="35" y="250"/>
      <point x="48" y="237" type="curve" smooth="yes"/>
      <point x="63" y="222"/>
      <point x="88" y="211"/>
      <point x="120" y="205" type="curve" smooth="yes"/>
      <point x="142" y="201"/>
      <point x="162" y="200"/>
      <point x="173" y="200" type="curve" smooth="yes"/>
      <point x="205" y="200"/>
      <point x="370" y="206"/>
      <point x="429" y="206" type="curve" smooth="yes"/>
      <point x="481" y="206"/>
      <point x="517" y="183"/>
      <point x="538" y="163" type="curve" smooth="yes"/>
      <point x="555" y="147"/>
      <point x="559" y="133"/>
      <point x="566" y="106" type="curve"/>
      <point x="566" y="106"/>
      <point x="491" y="103"/>
      <point x="454" y="102" type="curve" smooth="yes"/>
      <point x="418" y="100"/>
      <point x="375" y="100"/>
      <point x="338" y="100" type="curve" smooth="yes"/>
      <point x="241" y="100"/>
      <point x="210" y="98"/>
      <point x="124" y="98" type="curve"/>
      <point x="-21" y="98" type="line" smooth="yes"/>
      <point x="-48" y="98"/>
      <point x="-70" y="77"/>
      <point x="-70" y="50" type="curve" smooth="yes"/>
      <point x="-70" y="22"/>
      <point x="-48" y="0"/>
      <point x="-21" y="0" type="curve" smooth="yes"/>
      <point x="143" y="0" type="line"/>
      <point x="266" y="0"/>
      <point x="391" y="3"/>
      <point x="491" y="7" type="curve" smooth="yes"/>
      <point x="526" y="9"/>
      <point x="555" y="23"/>
      <point x="576" y="51" type="curve"/>
      <point x="580" y="41"/>
      <point x="585" y="32"/>
      <point x="593" y="26" type="curve" smooth="yes"/>
      <point x="614" y="6"/>
      <point x="648" y="0"/>
      <point x="664" y="0" type="curve" smooth="yes"/>
      <point x="707" y="0" type="line"/>
      <point x="707" y="98" type="line"/>
    </contour>
    <contour>
      <point x="247" y="550"/>
      <point x="248" y="561"/>
      <point x="251" y="573" type="curve"/>
      <point x="201" y="557"/>
      <point x="158" y="537"/>
      <point x="123" y="511" type="curve" smooth="yes"/>
      <point x="91" y="487"/>
      <point x="67" y="457"/>
      <point x="53" y="420" type="curve"/>
      <point x="60" y="414" type="line"/>
      <point x="82" y="446"/>
      <point x="104" y="466"/>
      <point x="129" y="484" type="curve" smooth="yes"/>
      <point x="165" y="509"/>
      <point x="203" y="525"/>
      <point x="242" y="540" type="curve"/>
    </contour>
    <contour>
      <point x="107" y="511" type="move" name="top"/>
    </contour>
    <contour>
      <point x="266" y="-26" type="move" name="bottom"/>
    </contour>
  </outline>
</glyph>
<glyph name="kaf_lam_alef-ar" format="1">
  <advance width="668"/>
  <outline>
    <contour>
      <point x="582" y="192"/>
      <point x="554" y="254"/>
      <point x="521" y="297" type="curve" smooth="yes"/>
      <point x="500" y="324"/>
      <point x="465" y="353"/>
      <point x="429" y="378" type="curve"/>
      <point x="506" y="421"/>
      <point x="582" y="457"/>
      <point x="631" y="480" type="curve"/>
      <point x="639" y="510"/>
      <point x="644" y="537"/>
      <point x="648" y="568" type="curve"/>
      <point x="577" y="534"/>
      <point x="423" y="461"/>
      <point x="348" y="394" type="curve"/>
      <point x="337" y="515"/>
      <point x="338" y="461"/>
      <point x="331" y="567" type="curve"/>
      <point x="306" y="547"/>
      <point x="285" y="525"/>
      <point x="271" y="505" type="curve"/>
      <point x="276" y="472"/>
      <point x="280" y="439"/>
      <point x="285" y="406" type="curve" smooth="yes"/>
      <point x="288" y="381"/>
      <point x="294" y="307"/>
      <point x="291" y="259" type="curve" smooth="yes"/>
      <point x="288" y="207"/>
      <point x="276" y="184"/>
      <point x="270" y="176" type="curve"/>
      <point x="259" y="215"/>
      <point x="234" y="262"/>
      <point x="213" y="295" type="curve" smooth="yes"/>
      <point x="184" y="340"/>
      <point x="142" y="391"/>
      <point x="88" y="438" type="curve" smooth="yes"/>
      <point x="40" y="481"/>
      <point x="-11" y="517"/>
      <point x="-28" y="517" type="curve" smooth="yes"/>
      <point x="-35" y="517"/>
      <point x="-41" y="511"/>
      <point x="-42" y="501" type="curve" smooth="yes"/>
      <point x="-47" y="459"/>
      <point x="-45" y="482"/>
      <point x="-50" y="434" type="curve"/>
      <point x="-27" y="416"/>
      <point x="-8" y="402"/>
      <point x="19" y="385" type="curve"/>
      <point x="30" y="405" type="line"/>
      <point x="54" y="386"/>
      <point x="91" y="356"/>
      <point x="136" y="301" type="curve" smooth="yes"/>
      <point x="184" y="242"/>
      <point x="231" y="167"/>
      <point x="226" y="115" type="curve"/>
      <point x="218" y="105"/>
      <point x="165" y="35"/>
      <point x="1" y="-46" type="curve"/>
      <point x="3" y="-59" type="line"/>
      <point x="30" y="-51"/>
      <point x="55" y="-47"/>
      <point x="78" y="-43" type="curve" smooth="yes"/>
      <point x="124" y="-35"/>
      <point x="147" y="-30"/>
      <point x="182" y="-12" type="curve" smooth="yes"/>
      <point x="304" y="50"/>
      <point x="319" y="130"/>
      <point x="320" y="135" type="curve"/>
      <point x="320" y="99"/>
      <point x="329" y="68"/>
      <point x="347" y="44" type="curve" smooth="yes"/>
      <point x="369" y="17"/>
      <point x="404" y="0"/>
      <point x="454" y="0" type="curve" smooth="yes"/>
      <point x="494" y="0"/>
      <point x="533" y="16"/>
      <point x="557" y="47" type="curve" smooth="yes"/>
      <point x="572" y="68"/>
      <point x="582" y="95"/>
      <point x="582" y="128" type="curve" smooth="yes"/>
    </contour>
    <contour>
      <point x="524" y="113"/>
      <point x="490" y="98"/>
      <point x="454" y="98" type="curve" smooth="yes"/>
      <point x="420" y="98"/>
      <point x="400" y="106"/>
      <point x="387" y="131" type="curve" smooth="yes"/>
      <point x="378" y="148"/>
      <point x="372" y="172"/>
      <point x="367" y="209" type="curve" smooth="yes"/>
      <point x="364" y="225"/>
      <point x="361" y="254"/>
      <point x="355" y="324" type="curve"/>
      <point x="392" y="313"/>
      <point x="435" y="283"/>
      <point x="469" y="249" type="curve" smooth="yes"/>
      <point x="509" y="209"/>
      <point x="536" y="164"/>
      <point x="536" y="139" type="curve"/>
    </contour>
    <contour>
      <point x="497" y="-27" type="move" name="bottom_1"/>
    </contour>
    <contour>
      <point x="224" y="547" type="move" name="top_2"/>
    </contour>
    <contour>
      <point x="419" y="0" type="move" name="caret_2"/>
    </contour>
    <contour>
      <point x="209" y="0" type="move" name="caret_1"/>
    </contour>
    <contour>
      <point x="66" y="-86" type="move" name="bottom_3"/>
    </contour>
    <contour>
      <point x="528" y="557" type="move" name="top_1"/>
    </contour>
    <contour>
      <point x="276" y="-22" type="move" name="bottom_2"/>
    </contour>
    <contour>
      <point x="-28" y="527" type="move" name="top_3"/>
    </contour>
  </outline>
</glyph>
<glyph name="kaf_lam_alefMaksura-ar" format="1">
  <advance width="860"/>
  <outline>
    <contour>
      <point x="768" y="534"/>
      <point x="619" y="463"/>
      <point x="541" y="386" type="curve"/>
      <point x="535" y="444"/>
      <point x="529" y="502"/>
      <point x="523" y="568" type="curve"/>
      <point x="500" y="547"/>
      <point x="483" y="529"/>
      <point x="462" y="497" type="curve"/>
      <point x="481" y="386"/>
      <point x="490" y="323"/>
      <point x="501" y="239" type="curve" smooth="yes"/>
      <point x="503" y="222"/>
      <point x="511" y="158"/>
      <point x="516" y="113" type="curve"/>
      <point x="511" y="69"/>
      <point x="417" y="28"/>
      <point x="379" y="28" type="curve"/>
      <point x="375" y="13"/>
      <point x="372" y="-7"/>
      <point x="369" y="-32" type="curve"/>
      <point x="389" y="-34"/>
      <point x="429" y="-39"/>
      <point x="463" y="-48" type="curve" smooth="yes"/>
      <point x="509" y="-60"/>
      <point x="533" y="-77"/>
      <point x="533" y="-95" type="curve" smooth="yes"/>
      <point x="533" y="-121"/>
      <point x="484" y="-147"/>
      <point x="454" y="-160" type="curve" smooth="yes"/>
      <point x="422" y="-174"/>
      <point x="363" y="-196"/>
      <point x="280" y="-196" type="curve" smooth="yes"/>
      <point x="202" y="-196"/>
      <point x="150" y="-177"/>
      <point x="122" y="-142" type="curve" smooth="yes"/>
      <point x="95" y="-109"/>
      <point x="99" y="-57"/>
      <point x="109" y="1" type="curve"/>
      <point x="90" y="8" type="line"/>
      <point x="74" y="-33"/>
      <point x="64" y="-81"/>
      <point x="61" y="-115" type="curve" smooth="yes"/>
      <point x="58" y="-149"/>
      <point x="62" y="-177"/>
      <point x="73" y="-203" type="curve" smooth="yes"/>
      <point x="88" y="-239"/>
      <point x="114" y="-265"/>
      <point x="150" y="-283" type="curve" smooth="yes"/>
      <point x="186" y="-301"/>
      <point x="227" y="-309"/>
      <point x="272" y="-309" type="curve" smooth="yes"/>
      <point x="333" y="-309"/>
      <point x="394" y="-294"/>
      <point x="447" y="-266" type="curve" smooth="yes"/>
      <point x="479" y="-249"/>
      <point x="517" y="-221"/>
      <point x="540" y="-194" type="curve" smooth="yes"/>
      <point x="563" y="-167"/>
      <point x="580" y="-132"/>
      <point x="580" y="-96" type="curve" smooth="yes"/>
      <point x="580" y="-41"/>
      <point x="541" y="-12"/>
      <point x="496" y="-1" type="curve"/>
      <point x="507" y="5"/>
      <point x="544" y="35"/>
      <point x="551" y="73" type="curve"/>
      <point x="566" y="27"/>
      <point x="607" y="-1"/>
      <point x="659" y="0" type="curve"/>
      <point x="733" y="0"/>
      <point x="774" y="50"/>
      <point x="774" y="128" type="curve" smooth="yes"/>
      <point x="774" y="192"/>
      <point x="746" y="254"/>
      <point x="713" y="297" type="curve" smooth="yes"/>
      <point x="692" y="324"/>
      <point x="657" y="353"/>
      <point x="621" y="378" type="curve"/>
      <point x="698" y="421"/>
      <point x="774" y="457"/>
      <point x="823" y="480" type="curve"/>
      <point x="831" y="510"/>
      <point x="836" y="537"/>
      <point x="840" y="568" type="curve"/>
    </contour>
    <contour>
      <point x="720" y="121"/>
      <point x="688" y="98"/>
      <point x="649" y="98" type="curve" smooth="yes"/>
      <point x="619" y="98"/>
      <point x="596" y="107"/>
      <point x="583" y="125" type="curve" smooth="yes"/>
      <point x="572" y="139"/>
      <point x="566" y="162"/>
      <point x="564" y="178" type="curve" smooth="yes"/>
      <point x="557" y="236"/>
      <point x="551" y="288"/>
      <point x="546" y="337" type="curve"/>
      <point x="622" y="302"/>
      <point x="728" y="186"/>
      <point x="728" y="139" type="curve"/>
    </contour>
    <contour>
      <point x="718" y="-63" type="move" name="bottom_1"/>
    </contour>
    <contour>
      <point x="423" y="564" type="move" name="top_2"/>
    </contour>
    <contour>
      <point x="547" y="0" type="move" name="caret_2"/>
    </contour>
    <contour>
      <point x="273" y="0" type="move" name="caret_1"/>
    </contour>
    <contour>
      <point x="272" y="-339" type="move" name="bottom_3"/>
    </contour>
    <contour>
      <point x="727" y="568" type="move" name="top_1"/>
    </contour>
    <contour>
      <point x="523" y="-301" type="move" name="bottom_2"/>
    </contour>
    <contour>
      <point x="242" y="0" type="move" name="top_3"/>
    </contour>
  </outline>
</glyph>
<glyph name="three-ar.below" format="1">
  <advance width="0"/>
  <outline>
    <contour>
      <point x="71" y="-215" type="line"/>
      <point x="71" y="-222"/>
      <point x="71" y="-249"/>
      <point x="46" y="-249" type="curve" smooth="yes"/>
      <point x="15" y="-249"/>
      <point x="18" y="-218"/>
      <point x="17" y="-210" type="curve"/>
      <point x="8" y="-215" type="line"/>
      <point x="8" y="-228"/>
      <point x="8" y="-246"/>
      <point x="-16" y="-246" type="curve" smooth="yes"/>
      <point x="-48" y="-246"/>
      <point x="-62" y="-218"/>
      <point x="-69" y="-208" type="curve"/>
      <point x="-77" y="-218"/>
      <point x="-84" y="-230"/>
      <point x="-90" y="-241" type="curve"/>
      <point x="-76" y="-264"/>
      <point x="-65" y="-294"/>
      <point x="-58" y="-326" type="curve" smooth="yes"/>
      <point x="-51" y="-363"/>
      <point x="-48" y="-399"/>
      <point x="-51" y="-441" type="curve"/>
      <point x="-39" y="-441" type="line"/>
      <point x="-32" y="-409"/>
      <point x="-27" y="-378"/>
      <point x="-27" y="-348" type="curve" smooth="yes"/>
      <point x="-27" y="-330"/>
      <point x="-29" y="-308"/>
      <point x="-34" y="-287" type="curve"/>
      <point x="-8" y="-289"/>
      <point x="0" y="-285"/>
      <point x="9" y="-269" type="curve"/>
      <point x="17" y="-276"/>
      <point x="24" y="-280"/>
      <point x="39" y="-280" type="curve" smooth="yes"/>
      <point x="56" y="-280"/>
      <point x="66" y="-273"/>
      <point x="72" y="-264" type="curve" smooth="yes"/>
      <point x="85" y="-246"/>
      <point x="82" y="-218"/>
      <point x="80" y="-210" type="curve"/>
    </contour>
    <contour>
      <point x="-4" y="-187" type="move" name="_bottom"/>
    </contour>
    <contour>
      <point x="-3" y="-441" type="move" name="bottom"/>
    </contour>
  </outline>
</glyph>
<glyph name="twodotsverticalcenter-ar" format="1">
  <advance width="0"/>
  <outline>
    <contour>
      <point x="32" y="303"/>
      <point x="43" y="316"/>
      <point x="56" y="330" type="curve"/>
      <point x="44" y="348"/>
      <point x="21" y="371"/>
      <point x="1" y="385" type="curve"/>
      <point x="-13" y="370"/>
      <point x="-35" y="348"/>
      <point x="-51" y="333" type="curve"/>
      <point x="-35" y="319"/>
      <point x="-20" y="305"/>
      <point x="-5" y="289" type="curve"/>
      <point x="-19" y="274"/>
      <point x="-37" y="256"/>
      <point x="-51" y="242" type="curve"/>
      <point x="-31" y="226"/>
      <point x="-14" y="210"/>
      <point x="4" y="188" type="curve"/>
      <point x="28" y="210"/>
      <point x="42" y="224"/>
      <point x="56" y="240" type="curve"/>
      <point x="47" y="255"/>
      <point x="31" y="272"/>
      <point x="13" y="286" type="curve"/>
    </contour>
    <contour>
      <point x="3" y="299" type="move" name="_center"/>
    </contour>
  </outline>
</glyph>
<glyph name="vbelow-ar" format="1">
  <advance width="0"/>
  <outline>
    <contour>
      <point x="68" y="-218"/>
      <point x="65" y="-209"/>
      <point x="59" y="-200" type="curve"/>
      <point x="40" y="-225"/>
      <point x="26" y="-246"/>
      <point x="18" y="-264" type="curve" smooth="yes"/>
      <point x="11" y="-276"/>
      <point x="8" y="-286"/>
      <point x="5" y="-293" type="curve" smooth="yes"/>
      <point x="1" y="-308"/>
      <point x="1" y="-317"/>
      <point x="1" y="-317" type="curve" smooth="yes"/>
      <point x="1" y="-317"/>
      <point x="0" y="-308"/>
      <point x="-4" y="-293" type="curve" smooth="yes"/>
      <point x="-7" y="-286"/>
      <point x="-10" y="-276"/>
      <point x="-15" y="-265" type="curve" smooth="yes"/>
      <point x="-24" y="-246"/>
      <point x="-39" y="-224"/>
      <point x="-59" y="-200" type="curve"/>
      <point x="-64" y="-208"/>
      <point x="-67" y="-214"/>
      <point x="-69" y="-225" type="curve"/>
      <point x="-48" y="-250"/>
      <point x="-28" y="-284"/>
      <point x="-17" y="-315" type="curve" smooth="yes"/>
      <point x="-11" y="-331"/>
      <point x="-8" y="-347"/>
      <point x="-8" y="-361" type="curve"/>
      <point x="8" y="-361" type="line"/>
      <point x="9" y="-346"/>
      <point x="12" y="-328"/>
      <point x="18" y="-312" type="curve" smooth="yes"/>
      <point x="29" y="-285"/>
      <point x="44" y="-255"/>
      <point x="70" y="-225" type="curve"/>
    </contour>
    <contour>
      <point x="1" y="-180" type="move" name="_bottom"/>
    </contour>
  </outline>
</glyph>
